<svg width="68" height="15" viewBox="0 0 68 15" fill="none" xmlns="http://www.w3.org/2000/svg">
<mask id="mask0_137_3399" style="mask-type:luminance" maskUnits="userSpaceOnUse" x="10" y="2" width="47" height="11">
<path d="M56.7027 2H10.4667V13H56.7027V2Z" fill="white"/>
</mask>
<g mask="url(#mask0_137_3399)">
<path d="M22.2191 3.2124C21.7601 3.2124 21.3858 3.57762 21.3858 4.02532C21.3858 4.473 21.7516 4.84733 22.2191 4.84733C22.6866 4.84733 23.063 4.47943 23.063 4.02532C23.063 3.57119 22.6925 3.2124 22.2191 3.2124Z" fill="#FF0000"/>
<path d="M44.3863 7.30157C44.3863 5.9703 43.6798 5.32446 42.2286 5.32446C41.4124 5.32446 40.6696 5.55471 40.0828 5.94403L40.5792 6.89564C41.0541 6.60807 41.4842 6.47687 41.9269 6.47687C42.37 6.47687 42.8991 6.61932 42.8991 7.30212V7.37494L42.0251 7.40546C40.5836 7.45419 39.755 8.10592 39.755 9.19569C39.755 10.2854 40.4931 10.9527 41.5469 10.9527C42.131 10.9527 42.626 10.776 43.0569 10.4108C43.1636 10.6984 43.3039 10.8419 43.6638 10.8419H44.5089C44.4264 10.5629 44.3857 10.2437 44.3857 9.76925L44.3863 7.30157ZM42.8996 9.46719C42.6606 9.66592 42.3645 9.76705 42.0144 9.76705C41.5186 9.76705 41.2224 9.51698 41.2224 9.09501C41.2224 8.82994 41.323 8.47381 42.2061 8.4465L42.8996 8.42615V9.46719Z" fill="#FF0000"/>
<path d="M21.4865 10.8419H22.9522V10.3214V5.44604H21.4865V10.8419Z" fill="#FF0000"/>
<path d="M18.29 10.8418H18.7987L21.0446 5.44543H19.5789L18.275 8.94233L16.993 5.44543H15.5176L17.4878 10.2549C17.6377 10.6271 17.8626 10.8418 18.29 10.8418Z" fill="#FF0000"/>
<path d="M34.1948 10.8419V7.28122C34.1948 5.83747 33.3026 5.32446 32.4688 5.32446C31.8401 5.32446 31.2783 5.52419 30.6566 5.97137L30.6491 5.94351C30.5259 5.60988 30.2609 5.44601 29.8335 5.44601H29.2739V10.8424H30.7375V7.12326C31.2103 6.77035 31.6259 6.59952 32.0125 6.59952C32.5068 6.59952 32.728 6.93208 32.728 7.68126V10.8419H34.1948Z" fill="#FF0000"/>
<path d="M39.4439 10.3979L39.0598 9.35573C38.7526 9.53407 38.3065 9.74564 37.7833 9.74564C36.6961 9.74564 36.3116 8.86093 36.3116 8.10424C36.3116 7.16069 36.9354 6.4763 37.7945 6.4763C38.2942 6.4763 38.7793 6.64017 39.1601 6.92666L39.2088 5.72016C38.7402 5.45827 38.248 5.32385 37.6392 5.32385C36.8621 5.32385 36.152 5.61145 35.6417 6.13356C35.1276 6.65568 34.8459 7.37918 34.8459 8.1712C34.8459 8.96323 35.0858 9.63527 35.518 10.1269C35.9903 10.6677 36.6795 10.9521 37.5052 10.9521C38.2801 10.9521 39.054 10.6646 39.4445 10.3974L39.4439 10.3979Z" fill="#FF0000"/>
<path d="M28.4294 10.8419C28.347 10.5629 28.3052 10.2437 28.3052 9.76925V7.30157C28.3052 5.9703 27.5988 5.32446 26.146 5.32446C25.3315 5.32446 24.5893 5.55471 24.0012 5.94403L24.4977 6.89564C24.9738 6.60807 25.4032 6.47687 25.8445 6.47687C26.2858 6.47687 26.8175 6.61932 26.8175 7.30212V7.37494L25.9435 7.40546C24.5025 7.45419 23.6751 8.10592 23.6751 9.19569C23.6751 10.2854 24.4126 10.9527 25.4664 10.9527C26.0518 10.9527 26.5444 10.776 26.9761 10.4108C27.0847 10.6984 27.2234 10.8419 27.5844 10.8419H28.4294ZM26.8186 9.46719C26.5809 9.66592 26.2826 9.76705 25.935 9.76705C25.438 9.76705 25.1419 9.51698 25.1419 9.09501C25.1419 8.82994 25.2426 8.47381 26.1262 8.4465L26.8186 8.42615V9.46719Z" fill="#FF0000"/>
<path d="M15.2204 10.8419C15.1379 10.5629 15.0961 10.2437 15.0961 9.76925V7.30157C15.0961 5.9703 14.3898 5.32446 12.937 5.32446C12.1225 5.32446 11.3802 5.55471 10.7922 5.94403L11.2887 6.89564C11.7647 6.60807 12.1942 6.47687 12.6355 6.47687C13.0767 6.47687 13.6085 6.61932 13.6085 7.30212V7.37494L12.7345 7.40546C11.294 7.45419 10.4666 8.10592 10.4666 9.19569C10.4666 10.2854 11.204 10.9527 12.2579 10.9527C12.8433 10.9527 13.3359 10.776 13.7675 10.4108C13.8762 10.6984 14.015 10.8419 14.3759 10.8419H15.2204ZM13.6096 9.46719C13.3718 9.66592 13.0735 9.76705 12.726 9.76705C12.229 9.76705 11.9329 9.51698 11.9329 9.09501C11.9329 8.82994 12.0336 8.47381 12.9172 8.4465L13.6096 8.42615V9.46719Z" fill="#FF0000"/>
<path d="M52.8202 10.5955H53.8336C54.2538 10.5955 54.4402 10.6304 54.5574 10.6834C54.3775 10.1248 53.8105 9.68942 51.8118 9.54004C52.1311 9.90949 52.4668 10.2635 52.8202 10.5955Z" fill="#FF0000"/>
<path d="M51.8121 9.54057C49.8722 7.2866 48.5657 4.40285 48.0418 2C48.0418 2 46.9756 2.94036 46.8912 4.91802C46.7974 7.07936 47.9568 9.25835 51.7749 9.53632C51.7873 9.53845 51.8002 9.53896 51.8121 9.54057Z" fill="#FF0000"/>
<path d="M52.8197 10.5956C51.3143 10.5956 48.7156 10.5956 48.7156 10.5956C48.7703 10.7231 48.9581 10.8125 49.386 10.8376C51.9479 10.9897 52.3104 13.0001 55.9772 13.0001C56.299 13.0001 56.4997 12.9808 56.7027 12.9427C55.2537 12.4972 53.9524 11.6602 52.8197 10.5956Z" fill="#FF0000"/>
</g>
</svg>
